<?xml version="1.0" encoding="utf-8"?><!-- Uploaded to: SVG Repo, www.svgrepo.com, Generator: SVG Repo Mixer Tools -->
<svg fill="#000000" width="800px" height="800px" viewBox="0 0 24 24" id="phone-out" data-name="Flat Color" xmlns="http://www.w3.org/2000/svg" class="icon flat-color"><path id="secondary" d="M21,10a1,1,0,0,1-1-1,5,5,0,0,0-5-5,1,1,0,0,1,0-2,7,7,0,0,1,7,7A1,1,0,0,1,21,10ZM18,9a3,3,0,0,0-3-3,1,1,0,0,0,0,2,1,1,0,0,1,1,1,1,1,0,0,0,2,0Z" style="fill: rgb(44, 169, 188);"></path><path id="primary" d="M20.19,13a10,10,0,0,1-3.43-.91,2,2,0,0,0-2.56.83l-.51.85a12.69,12.69,0,0,1-3.44-3.45l.86-.49a2,2,0,0,0,.83-2.56A10,10,0,0,1,11,3.81,2,2,0,0,0,9,2H5.13A3,3,0,0,0,2.86,3a3.13,3.13,0,0,0-.71,2.43A19,19,0,0,0,18.58,21.85a3,3,0,0,0,.42,0,3,3,0,0,0,2-.73,3,3,0,0,0,1-2.26V15A2,2,0,0,0,20.19,13Z" style="fill: rgb(0, 0, 0);"></path></svg>